<?xml version="1.0" standalone="no"?>
<!DOCTYPE svg PUBLIC "-//W3C//DTD SVG 20010904//EN"
 "http://www.w3.org/TR/2001/REC-SVG-20010904/DTD/svg10.dtd">
<svg version="1.0" xmlns="http://www.w3.org/2000/svg"
 width="222.000000pt" height="222.000000pt" viewBox="0 0 222.000000 222.000000"
 preserveAspectRatio="xMidYMid meet">
<metadata>
Created by potrace 1.14, written by Peter Selinger 2001-2017
</metadata>
<g transform="translate(0.000000,222.000000) scale(0.100000,-0.100000)"
fill="#000000" stroke="none">
<path d="M368 1635 c-2 -2 -25 -6 -53 -10 -117 -15 -242 -108 -266 -199 -49
-180 52 -303 330 -403 118 -42 160 -67 177 -108 37 -88 -37 -155 -157 -142
-83 9 -137 55 -144 122 -1 11 -3 25 -4 30 -2 16 -231 11 -241 -5 -11 -18 13
-111 40 -156 69 -113 209 -176 388 -175 175 0 294 58 348 167 24 48 26 63 22
133 -9 158 -84 230 -336 321 -168 62 -212 105 -178 176 29 63 145 86 214 44
33 -20 68 -82 57 -100 -4 -6 43 -10 121 -10 l127 0 -6 51 c-13 112 -99 203
-232 247 -35 11 -199 25 -207 17z"/>
<path d="M1665 1621 c-139 -40 -228 -131 -281 -287 -43 -129 -37 -358 12 -485
52 -132 169 -229 306 -255 59 -11 205 -5 275 11 85 20 185 68 215 103 22 27
23 33 22 232 l-1 205 -209 0 -209 0 0 -82 c0 -46 2 -83 5 -84 3 0 41 -1 85 -2
l80 -2 0 -80 0 -80 -39 -19 c-53 -26 -150 -25 -205 3 -42 22 -87 80 -95 123
-2 13 -8 41 -13 63 -13 60 -7 232 10 298 29 110 81 159 176 163 75 3 126 -23
152 -79 10 -23 19 -50 19 -59 0 -16 12 -18 120 -18 l120 0 0 25 c0 39 -34 128
-69 178 -36 53 -106 102 -176 123 -77 23 -228 26 -300 5z"/>
<path d="M1003 810 c-104 -63 -64 -205 61 -215 77 -6 131 35 140 106 12 96
-112 164 -201 109z"/>
</g>
</svg>
